<?xml version="1.0" encoding="UTF-8"?> <svg xmlns="http://www.w3.org/2000/svg" viewBox="0 0 206 67"> <defs> <style>.cls-1{fill:#404148}.cls-2{fill:#008b8b}</style> </defs> <g id="Layer_2" data-name="Layer 2"> <g id="Layer_1-2" data-name="Layer 1"> <path class="cls-1" d="M24.85 32.91a5.79 5.79 0 0 0-1.78-4.7 8.9 8.9 0 0 0-4.92-1.91l-5.37-.76a15.33 15.33 0 0 1-8.55-3.65C2 19.82.89 16.9.89 13.22.89 5.34 6.61 0 16 0a20 20 0 0 1 10.66 2.67c1.59.82 2.77 2 2.77 3.46a3.18 3.18 0 0 1-.8 2.1 2.59 2.59 0 0 1-2.09 1 6.11 6.11 0 0 1-2.77-1 13.73 13.73 0 0 0-8-2.23c-5.34 0-8.2 2.9-8.2 7a5.25 5.25 0 0 0 1.66 4.2 8.82 8.82 0 0 0 4.95 2l5.41.83c4.13.63 6.42 1.59 8.39 3.36a12.08 12.08 0 0 1 3.68 9.28C31.65 41 24.92 46 15.38 46 10 46 6.55 45 3.21 43 .86 41.55 0 40.6 0 39a3.39 3.39 0 0 1 1-2.26 2.78 2.78 0 0 1 2-.82A4.88 4.88 0 0 1 5.88 37a15.34 15.34 0 0 0 9.63 2.89c5.97.01 9.34-2.53 9.34-6.98zM47.8 44.32a3.53 3.53 0 0 1-5.85 0 5.58 5.58 0 0 1-.51-3.12V4.8A5.58 5.58 0 0 1 42 1.68a3.53 3.53 0 0 1 5.85 0c.48.89.51 1.43.51 3.12V23L65.44 2.19C66.55.86 67.31.13 68.58.13a3.24 3.24 0 0 1 2.13.79A3.25 3.25 0 0 1 72 3.4c0 .95-.41 1.62-1.52 2.95L60.8 18l12.39 21.74a5.7 5.7 0 0 1 1.08 2.83 3.13 3.13 0 0 1-1.68 2.83 3.53 3.53 0 0 1-1.84.47c-1.72 0-2.52-1.2-3.41-2.79L56 23.16l-7.72 9.28v8.76c.03 1.69 0 2.23-.48 3.12zM134.37 41.2V4.57a4.08 4.08 0 0 1 1-3.2 4.1 4.1 0 0 1 3.21-1h13.35c8.58 0 14 5.53 14 13.22a11.9 11.9 0 0 1-9 12l8.1 14.14a5.84 5.84 0 0 1 1.09 2.83 3.12 3.12 0 0 1-1.69 2.83 3.53 3.53 0 0 1-1.84.47c-1.72 0-2.51-1.2-3.4-2.79l-9.44-16.52h-8.58V41.2c0 1.69 0 2.23-.51 3.12a3.53 3.53 0 0 1-5.85 0c-.41-.89-.44-1.43-.44-3.12zm6.87-34.72v14.23h10.17c4.57 0 7.69-2.6 7.69-7s-3.1-7.23-7.69-7.23zM183.6 19.76h14.94a5.34 5.34 0 0 1 2.8.44 2.92 2.92 0 0 1 1.39 2.61 2.89 2.89 0 0 1-1.39 2.6 5.23 5.23 0 0 1-2.8.45H183.6v13.66h18.18a5.34 5.34 0 0 1 2.8.44 3.12 3.12 0 0 1 0 5.21 5.33 5.33 0 0 1-2.8.45h-20.85a3.58 3.58 0 0 1-4.19-4.19V4.57a4.11 4.11 0 0 1 1-3.2 4.12 4.12 0 0 1 3.21-1h20.85a5.23 5.23 0 0 1 2.8.45 2.9 2.9 0 0 1 1.4 2.6A2.93 2.93 0 0 1 204.58 6a5.34 5.34 0 0 1-2.8.44H183.6z"></path> <path class="cls-2" d="M91.31 36.94a11.41 11.41 0 0 0 2 2.67c1.24 1.11 1.78 2 1.78 3.2a3 3 0 0 1-.89 2.1 3.22 3.22 0 0 1-2.32 1c-1 0-1.91-.47-3.18-1.74a18 18 0 0 1-3.56-4.77 15 15 0 0 1-1.27-7.08V13.78a15 15 0 0 1 1.24-7.08 18 18 0 0 1 3.56-4.77C89.94.66 90.8.18 91.85.18a3.23 3.23 0 0 1 2.32 1 3 3 0 0 1 .89 2.09c0 1.24-.54 2.1-1.78 3.21a11.2 11.2 0 0 0-2 2.67 10.36 10.36 0 0 0-1 5.05v17.69a10.36 10.36 0 0 0 1.03 5.05zM117.08 14.16a10.37 10.37 0 0 0-1-5.05 11.2 11.2 0 0 0-2-2.67c-1.24-1.11-1.78-2-1.78-3.21a3 3 0 0 1 .89-2.09 3.2 3.2 0 0 1 2.32-1c1 0 1.9.48 3.18 1.75a18.24 18.24 0 0 1 3.61 4.81 15.13 15.13 0 0 1 1.27 7.08v18.49a15.13 15.13 0 0 1-1.27 7.08 18.24 18.24 0 0 1-3.56 4.77c-1.28 1.27-2.13 1.74-3.18 1.74a3.19 3.19 0 0 1-2.32-1 3 3 0 0 1-.89-2.1c0-1.23.54-2.09 1.78-3.2a11.41 11.41 0 0 0 2-2.67 10.37 10.37 0 0 0 1-5zM5.92 59.13a.91.91 0 0 1-.53.09H3.78v6.84a1.12 1.12 0 0 1-.1.61.6.6 0 0 1-.55.31.62.62 0 0 1-.56-.31 1.13 1.13 0 0 1-.09-.61v-6.84H.86a.93.93 0 0 1-.53-.09.58.58 0 0 1-.26-.51.61.61 0 0 1 .26-.52 1 1 0 0 1 .53-.1h4.53a1 1 0 0 1 .53.08.59.59 0 0 1 .27.52.56.56 0 0 1-.27.53zM7.59 66.06v-7.22a.81.81 0 0 1 .19-.63.76.76 0 0 1 .61-.21h2.53a2.5 2.5 0 0 1 2.66 2.6 2.33 2.33 0 0 1-1.7 2.4l1.54 2.79a1.08 1.08 0 0 1 .2.55.6.6 0 0 1-.32.56.64.64 0 0 1-.3.1c-.32 0-.47-.24-.64-.56l-1.79-3.25H8.89v2.89a1.13 1.13 0 0 1-.09.61.62.62 0 0 1-.56.31.6.6 0 0 1-.55-.31 1.12 1.12 0 0 1-.1-.63zm1.3-6.84V62h1.93a1.33 1.33 0 0 0 1.46-1.39 1.34 1.34 0 0 0-1.46-1.41zM16.35 65.14l-.43 1.19a1 1 0 0 1-.28.51.52.52 0 0 1-.36.14.66.66 0 0 1-.47-.2c-.25-.27-.17-.55-.05-.9l2.63-7.26a1.09 1.09 0 0 1 .26-.47.65.65 0 0 1 .48-.18.63.63 0 0 1 .47.18 1.09 1.09 0 0 1 .26.47l2.63 7.26c.13.35.2.63 0 .9A.7.7 0 0 1 21 67a.52.52 0 0 1-.36-.14 1 1 0 0 1-.28-.51l-.43-1.19zm1.78-5L16.75 64h2.75zM24.28 66.06a1.12 1.12 0 0 1-.1.61.6.6 0 0 1-.55.31.62.62 0 0 1-.56-.31 1.13 1.13 0 0 1-.09-.61v-7.23a.86.86 0 0 1 .19-.65.64.64 0 0 1 .49-.21c.31 0 .5.19.76.59l3.72 5.71v-5.38a1.16 1.16 0 0 1 .1-.62.6.6 0 0 1 .55-.3.62.62 0 0 1 .56.3 1.17 1.17 0 0 1 .09.62v7.23a.88.88 0 0 1-.18.64.67.67 0 0 1-.5.22c-.3 0-.5-.2-.76-.6l-3.72-5.71zM35.76 64.42a1.15 1.15 0 0 0-.34-.92 1.67 1.67 0 0 0-.94-.38l-1-.15a2.83 2.83 0 0 1-1.63-.72 2.26 2.26 0 0 1-.63-1.71 2.57 2.57 0 0 1 2.87-2.6 3.69 3.69 0 0 1 2 .53.83.83 0 0 1 .52.68.6.6 0 0 1-.15.41.48.48 0 0 1-.4.2 1.22 1.22 0 0 1-.52-.2 2.57 2.57 0 0 0-1.54-.44 1.36 1.36 0 0 0-1.55 1.39 1 1 0 0 0 .31.82 1.61 1.61 0 0 0 .94.4l1 .17a2.73 2.73 0 0 1 1.6.66 2.45 2.45 0 0 1 .7 1.83C37 66 35.77 67 34 67a4 4 0 0 1-2.31-.6c-.44-.28-.61-.46-.61-.79a.69.69 0 0 1 .18-.44.5.5 0 0 1 .34-.17.94.94 0 0 1 .56.23 2.84 2.84 0 0 0 1.84.57c1.12 0 1.76-.5 1.76-1.38zM40.07 62h2.83a.91.91 0 0 1 .53.09.56.56 0 0 1 .26.51.58.58 0 0 1-.26.52 1 1 0 0 1-.53.08h-2.83v2.91a1.12 1.12 0 0 1-.1.61.65.65 0 0 1-1.11 0 1.12 1.12 0 0 1-.1-.61v-7.27a.81.81 0 0 1 .19-.63.78.78 0 0 1 .61-.19h3.95a1 1 0 0 1 .53.08.59.59 0 0 1 .27.52.56.56 0 0 1-.27.51.91.91 0 0 1-.53.09h-3.44zM45.49 62.47c0-1.87 0-2.76.86-3.62a3.16 3.16 0 0 1 4.44 0c.83.86.87 1.75.87 3.62s0 2.76-.87 3.62a3.16 3.16 0 0 1-4.44 0c-.83-.86-.86-1.75-.86-3.62zm3.08 3.33a1.7 1.7 0 0 0 1.28-.56c.42-.47.51-1 .51-2.77s-.09-2.3-.51-2.77a1.74 1.74 0 0 0-2.56 0c-.42.47-.5 1-.5 2.77s.08 2.3.5 2.77a1.7 1.7 0 0 0 1.28.56zM53.57 66.06v-7.22a.81.81 0 0 1 .19-.63.75.75 0 0 1 .6-.19h2.54a2.5 2.5 0 0 1 2.66 2.6 2.33 2.33 0 0 1-1.7 2.38l1.54 2.79a1.08 1.08 0 0 1 .2.55.62.62 0 0 1-.32.56.64.64 0 0 1-.35.1c-.32 0-.47-.24-.64-.56l-1.79-3.27h-1.63v2.89a1.12 1.12 0 0 1-.1.61.6.6 0 0 1-.55.31.62.62 0 0 1-.56-.31 1.13 1.13 0 0 1-.09-.61zm1.3-6.84V62h1.93a1.33 1.33 0 0 0 1.46-1.39 1.34 1.34 0 0 0-1.46-1.41zM65.92 64.91c-.15.32-.33.5-.66.5a.7.7 0 0 1-.67-.5L62.77 61v5.09a1.12 1.12 0 0 1-.1.61.65.65 0 0 1-1.11 0 1.12 1.12 0 0 1-.1-.61V58.8a.86.86 0 0 1 .2-.63.62.62 0 0 1 .47-.2.75.75 0 0 1 .37.08 1.17 1.17 0 0 1 .32.41l2.44 5.16 2.42-5.16a1.17 1.17 0 0 1 .32-.41.71.71 0 0 1 .36-.08.63.63 0 0 1 .48.2.89.89 0 0 1 .19.63v7.26a1.13 1.13 0 0 1-.09.61.62.62 0 0 1-.56.31.61.61 0 0 1-.55-.31 1.12 1.12 0 0 1-.1-.61V61zM72.11 65.14l-.43 1.19a1 1 0 0 1-.28.51.52.52 0 0 1-.4.16.7.7 0 0 1-.48-.2c-.24-.27-.16-.55 0-.9l2.63-7.26a1.09 1.09 0 0 1 .26-.47.65.65 0 0 1 .48-.18.63.63 0 0 1 .47.18 1.09 1.09 0 0 1 .26.47l2.63 7.26c.12.35.2.63 0 .9a.7.7 0 0 1-.48.2.52.52 0 0 1-.36-.14 1 1 0 0 1-.28-.51l-.43-1.19zm1.78-5L72.51 64h2.75zM83.78 59.13a.91.91 0 0 1-.53.09h-1.61v6.84a1.12 1.12 0 0 1-.1.61.61.61 0 0 1-.54.33.62.62 0 0 1-.56-.31 1.13 1.13 0 0 1-.09-.61v-6.86h-1.63a.91.91 0 0 1-.53-.09.56.56 0 0 1-.27-.51.59.59 0 0 1 .27-.52 1 1 0 0 1 .53-.08h4.53a1 1 0 0 1 .53.08.59.59 0 0 1 .27.52.56.56 0 0 1-.27.51zM86.65 66.67a.6.6 0 0 1-.55.31.62.62 0 0 1-.56-.31 1.13 1.13 0 0 1-.09-.61v-7.17a1.17 1.17 0 0 1 .09-.62.62.62 0 0 1 .56-.3.59.59 0 0 1 .55.3 1.16 1.16 0 0 1 .1.62v7.17a1.12 1.12 0 0 1-.1.61zM88.66 62.47c0-1.87 0-2.76.87-3.62a2.91 2.91 0 0 1 2.22-.91 2.94 2.94 0 0 1 2.22.91c.83.86.86 1.75.86 3.62s0 2.76-.86 3.62a2.94 2.94 0 0 1-2.22.91 2.91 2.91 0 0 1-2.22-.91c-.84-.86-.87-1.75-.87-3.62zm3.09 3.33a1.7 1.7 0 0 0 1.25-.56c.42-.47.5-1 .5-2.77s-.08-2.3-.5-2.77a1.7 1.7 0 0 0-1.28-.56 1.67 1.67 0 0 0-1.28.56c-.43.47-.5 1-.5 2.77s.07 2.3.5 2.77a1.67 1.67 0 0 0 1.31.56zM98.05 66.06a1.12 1.12 0 0 1-.1.61.6.6 0 0 1-.55.31.62.62 0 0 1-.56-.31 1.13 1.13 0 0 1-.09-.61v-7.23a.9.9 0 0 1 .18-.65.67.67 0 0 1 .5-.21c.3 0 .5.19.76.59l3.72 5.71v-5.38a1.16 1.16 0 0 1 .1-.62.59.59 0 0 1 .55-.3.62.62 0 0 1 .56.3 1.17 1.17 0 0 1 .09.62v7.23a.88.88 0 0 1-.18.64.68.68 0 0 1-.5.22c-.31 0-.5-.2-.76-.6l-3.72-5.71zM108.3 66.06v-7.22a.81.81 0 0 1 .19-.63.78.78 0 0 1 .61-.19h2.53a2.49 2.49 0 0 1 2.66 2.6 2.33 2.33 0 0 1-1.7 2.36l1.54 2.79a1.23 1.23 0 0 1 .21.55.64.64 0 0 1-.32.56.67.67 0 0 1-.35.1c-.33 0-.48-.24-.65-.56l-1.79-3.25h-1.62v2.89a1.12 1.12 0 0 1-.1.61.65.65 0 0 1-1.11 0 1.12 1.12 0 0 1-.1-.61zm1.31-6.84V62h1.92a1.33 1.33 0 0 0 1.47-1.37 1.34 1.34 0 0 0-1.46-1.41zM117.4 66.67a.64.64 0 0 1-1.1 0 1.12 1.12 0 0 1-.1-.61v-7.17a1.16 1.16 0 0 1 .1-.62.65.65 0 0 1 1.1 0 1.07 1.07 0 0 1 .1.62v7.17a1 1 0 0 1-.1.61zM121.22 65.24a1.75 1.75 0 0 0 2.55 0 2.38 2.38 0 0 0 .49-1.84h-1.08a1 1 0 0 1-.53-.09.63.63 0 0 1 0-1 1 1 0 0 1 .53-.09h1.54a.75.75 0 0 1 .61.2.85.85 0 0 1 .18.63v.13c0 1.45-.14 2.22-.81 2.91a2.87 2.87 0 0 1-2.2.92 2.93 2.93 0 0 1-2.22-.91c-.83-.86-.86-1.75-.86-3.62s0-2.76.86-3.62a2.92 2.92 0 0 1 2.21-.91 2.76 2.76 0 0 1 2.25.92 2.36 2.36 0 0 1 .65 1.43.66.66 0 0 1-.17.51.6.6 0 0 1-.45.19.65.65 0 0 1-.39-.13 1.32 1.32 0 0 1-.32-.51 1.64 1.64 0 0 0-1.59-1.21 1.61 1.61 0 0 0-1.24.56c-.45.51-.51 1.08-.51 2.77s.08 2.29.5 2.76zM132.21 61.83v-2.94a1.16 1.16 0 0 1 .1-.62.59.59 0 0 1 .55-.3.62.62 0 0 1 .56.3 1.17 1.17 0 0 1 .09.62v7.17a1.13 1.13 0 0 1-.09.61.62.62 0 0 1-.56.31.6.6 0 0 1-.55-.31 1.12 1.12 0 0 1-.1-.61V63h-3.48v3a1.12 1.12 0 0 1-.1.61.6.6 0 0 1-.55.31.62.62 0 0 1-.56-.31 1.13 1.13 0 0 1-.09-.61v-7.11a1.17 1.17 0 0 1 .09-.62.62.62 0 0 1 .56-.3.59.59 0 0 1 .55.3 1.16 1.16 0 0 1 .1.62v2.94zM140.77 59.13a.91.91 0 0 1-.53.09h-1.62v6.84a1.13 1.13 0 0 1-.09.61.62.62 0 0 1-.53.33.61.61 0 0 1-.55-.31 1.12 1.12 0 0 1-.1-.61v-6.86h-1.61a.91.91 0 0 1-.53-.09.56.56 0 0 1-.27-.51.59.59 0 0 1 .27-.52 1 1 0 0 1 .53-.08h4.53a1 1 0 0 1 .53.08.59.59 0 0 1 .27.52.56.56 0 0 1-.3.51zM146.62 62h2.83a.91.91 0 0 1 .55 0 .56.56 0 0 1 .26.51.58.58 0 0 1-.26.52 1 1 0 0 1-.53.08h-2.83v2.91a1.12 1.12 0 0 1-.1.61.65.65 0 0 1-1.11 0 1.13 1.13 0 0 1-.09-.61v-7.18a.85.85 0 0 1 .18-.63.78.78 0 0 1 .61-.19h3.95a1 1 0 0 1 .53.08.59.59 0 0 1 .27.52.56.56 0 0 1-.27.51.91.91 0 0 1-.53.09h-3.44zM153.54 66.67a.6.6 0 0 1-.54.33.62.62 0 0 1-.56-.31 1.13 1.13 0 0 1-.09-.61v-7.19a1.17 1.17 0 0 1 .09-.62.62.62 0 0 1 .56-.27.59.59 0 0 1 .55.3 1.16 1.16 0 0 1 .1.62v7.17a1.12 1.12 0 0 1-.11.58zM155.86 66.06v-7.22a.85.85 0 0 1 .18-.63.78.78 0 0 1 .61-.19h2.53a2.5 2.5 0 0 1 2.67 2.6 2.34 2.34 0 0 1-1.7 2.36l1.53 2.79a1.23 1.23 0 0 1 .21.55.64.64 0 0 1-.32.56.67.67 0 0 1-.35.1c-.33 0-.48-.24-.65-.56l-1.79-3.25h-1.62v2.89a1.12 1.12 0 0 1-.1.61.61.61 0 0 1-.55.31.62.62 0 0 1-.56-.31 1.13 1.13 0 0 1-.09-.61zm1.3-6.84V62h1.93a1.32 1.32 0 0 0 1.45-1.39 1.34 1.34 0 0 0-1.45-1.41zM167.85 64.42a1.15 1.15 0 0 0-.34-.92 1.63 1.63 0 0 0-.93-.38l-1-.15a2.8 2.8 0 0 1-1.62-.72 2.23 2.23 0 0 1-.63-1.71 2.56 2.56 0 0 1 2.86-2.6 3.66 3.66 0 0 1 2 .53.84.84 0 0 1 .53.68.65.65 0 0 1-.15.41.51.51 0 0 1-.4.2 1.21 1.21 0 0 1-.53-.2 2.54 2.54 0 0 0-1.51-.44 1.37 1.37 0 0 0-1.56 1.39 1.08 1.08 0 0 0 .31.82 1.61 1.61 0 0 0 .94.4l1 .17a2.7 2.7 0 0 1 1.59.66 2.42 2.42 0 0 1 .7 1.83c0 1.63-1.28 2.61-3.09 2.61a4 4 0 0 1-2.3-.6c-.45-.28-.61-.46-.61-.79a.64.64 0 0 1 .18-.44.5.5 0 0 1 .38-.17.89.89 0 0 1 .55.23 2.87 2.87 0 0 0 1.83.57c1.16 0 1.8-.5 1.8-1.38zM175.9 59.13a.91.91 0 0 1-.53.09h-1.61v6.84a1.12 1.12 0 0 1-.1.61.61.61 0 0 1-.55.31.62.62 0 0 1-.56-.31 1.13 1.13 0 0 1-.09-.61v-6.84h-1.62a.91.91 0 0 1-.53-.09.56.56 0 0 1-.26-.51.58.58 0 0 1 .26-.52 1 1 0 0 1 .53-.08h4.53a1 1 0 0 1 .53.08.59.59 0 0 1 .27.52.56.56 0 0 1-.27.51zM185.49 59.13a.91.91 0 0 1-.53.09h-1.61v6.84a1.12 1.12 0 0 1-.1.61.65.65 0 0 1-1.11 0 1.12 1.12 0 0 1-.1-.61v-6.84h-1.61a.91.91 0 0 1-.53-.09.56.56 0 0 1-.27-.51.59.59 0 0 1 .27-.52 1 1 0 0 1 .53-.08H185a1 1 0 0 1 .53.08.59.59 0 0 1 .27.52.56.56 0 0 1-.31.51zM188.36 66.67a.6.6 0 0 1-.55.31.62.62 0 0 1-.56-.31 1.13 1.13 0 0 1-.09-.61v-7.17a1.17 1.17 0 0 1 .09-.62.62.62 0 0 1 .56-.3.59.59 0 0 1 .55.3 1.16 1.16 0 0 1 .1.62v7.17a1.12 1.12 0 0 1-.1.61zM195.13 64.91a.7.7 0 0 1-.67.5c-.33 0-.51-.18-.66-.5L192 61v5.09a1.12 1.12 0 0 1-.1.61.65.65 0 0 1-1.11 0 1.12 1.12 0 0 1-.1-.61V58.8a.86.86 0 0 1 .2-.63.62.62 0 0 1 .47-.2.75.75 0 0 1 .37.08 1.17 1.17 0 0 1 .32.41l2.43 5.16 2.43-5.16a1.07 1.07 0 0 1 .32-.41.71.71 0 0 1 .36-.08.63.63 0 0 1 .48.2.89.89 0 0 1 .19.63v7.26a1.13 1.13 0 0 1-.09.61.62.62 0 0 1-.56.31.6.6 0 0 1-.55-.31 1.12 1.12 0 0 1-.1-.61V61zM201.76 61.83h2.83a1 1 0 0 1 .53.09.57.57 0 0 1 .27.51.59.59 0 0 1-.27.52 1 1 0 0 1-.53.08h-2.83v2.69h3.44a1.07 1.07 0 0 1 .54.09.64.64 0 0 1 0 1 1.07 1.07 0 0 1-.54.09h-3.95a.75.75 0 0 1-.61-.2.85.85 0 0 1-.18-.63v-7.23a.85.85 0 0 1 .18-.63.78.78 0 0 1 .61-.19h3.95a1.09 1.09 0 0 1 .54.08.61.61 0 0 1 .26.52.58.58 0 0 1-.26.51 1 1 0 0 1-.54.09h-3.44z"></path> </g> </g> </svg> 